<svg width="1440" height="244" viewBox="0 0 1440 244" fill="none" xmlns="http://www.w3.org/2000/svg">
<g filter="url(#filter0_f_454_1629)">
<path d="M-15 17C69.8333 36 277.2 74 428 74C616.5 74 1111 -1 1327 54C1499.8 98 1474.5 91.5 1506 120.5" stroke="#D5B071"/>
<path d="M-13.5 13C99.5 50.5 395.6 95.7 624 64.5C909.5 25.5 1022.5 21 1250 39C1439 53.9536 1529.83 143.833 1553 176M-13.5 21C85.1667 38 350.684 78.3797 489 68.5C664 56 1080 9 1345 47.5C1555.13 78.0288 1492.83 144.833 1480.5 231.5" stroke="#D5B071"/>
</g>
<path d="M-15 17C69.8333 36 277.2 74 428 74C616.5 74 1111 -1 1327 54C1499.8 98 1474.5 91.5 1506 120.5" stroke="#D5B071"/>
<path d="M-13.5 13C99.5 50.5 395.6 95.7 624 64.5C909.5 25.5 1022.5 21 1250 39C1439 53.9536 1456.5 89 1533 130M-13.5 21C85.1667 38 350.684 78.3797 489 68.5C664 56 1154 -9.5 1453 77.5" stroke="#D5B071"/>
<defs>
<filter id="filter0_f_454_1629" x="-27.1093" y="0.525452" width="1592.52" height="243.045" filterUnits="userSpaceOnUse" color-interpolation-filters="sRGB">
<feFlood flood-opacity="0" result="BackgroundImageFix"/>
<feBlend mode="normal" in="SourceGraphic" in2="BackgroundImageFix" result="shape"/>
<feGaussianBlur stdDeviation="6" result="effect1_foregroundBlur_454_1629"/>
</filter>
</defs>
</svg>
